<svg xmlns="http://www.w3.org/2000/svg" viewBox="0 0 790.55 221.68"><defs><style>.cls-1{fill:#2c363b;}.cls-2{fill:#b47a18;}</style></defs><title>Ativo 3</title><g id="Camada_2" data-name="Camada 2"><g id="Camada_1-2" data-name="Camada 1"><path class="cls-1" d="M66.11,181.36a23.7,23.7,0,0,1-.39,5.06,4,4,0,0,1-1.9,2.55,11.56,11.56,0,0,1-4.72,1.28,93.13,93.13,0,0,1-9.5.35,89.46,89.46,0,0,1-9.44-.36,9.6,9.6,0,0,1-4.62-1.5,5.23,5.23,0,0,1-2-3.33,37.87,37.87,0,0,1-.43-6.75,37.64,37.64,0,0,1,.43-6.72,5.22,5.22,0,0,1,2-3.31,9.74,9.74,0,0,1,4.62-1.51,89.81,89.81,0,0,1,9.45-.36q6.16,0,9.41.34a11.8,11.8,0,0,1,4.76,1.3A4.1,4.1,0,0,1,65.7,171a22.75,22.75,0,0,1,.41,5H57.8a4.58,4.58,0,0,0-.24-1.67,1.9,1.9,0,0,0-1.05-.94,8.28,8.28,0,0,0-2.39-.5c-1.07-.09-2.58-.15-4.52-.15-2.28,0-3.92.06-4.92.16a4.37,4.37,0,0,0-2.22.7,2.35,2.35,0,0,0-.87,1.57,38.58,38.58,0,0,0,0,7,2.34,2.34,0,0,0,.88,1.57,4.5,4.5,0,0,0,2.21.68c1,.1,2.64.15,4.92.15,1.94,0,3.44,0,4.5-.13a8.37,8.37,0,0,0,2.4-.45,1.87,1.87,0,0,0,1.08-.94,4.5,4.5,0,0,0,.26-1.72Z"></path><path class="cls-1" d="M129.82,178.7a25,25,0,0,0-.18-3.65,2.22,2.22,0,0,0-1-1.56,5.49,5.49,0,0,0-2.49-.62c-1.11-.08-3-.11-5.81-.11s-4.72,0-5.82.11a5.64,5.64,0,0,0-2.49.61,2.17,2.17,0,0,0-1,1.57,22.91,22.91,0,0,0-.2,3.65,22.65,22.65,0,0,0,.19,3.61,2.14,2.14,0,0,0,1,1.55,5.45,5.45,0,0,0,2.48.62c1.11.08,3,.12,5.8.12s4.72,0,5.83-.12a5.58,5.58,0,0,0,2.5-.62,2.18,2.18,0,0,0,1-1.55,24.33,24.33,0,0,0,.18-3.61m8.28,0a42.65,42.65,0,0,1-.43,6.91,4.81,4.81,0,0,1-2,3.22,10.69,10.69,0,0,1-4.91,1.43q-3.33.35-10.47.34t-10.47-.35a10.81,10.81,0,0,1-4.92-1.44,4.75,4.75,0,0,1-2-3.2,41.23,41.23,0,0,1-.4-6.91,41.51,41.51,0,0,1,.4-6.93,4.79,4.79,0,0,1,2-3.22,10.69,10.69,0,0,1,4.94-1.45c2.23-.23,5.72-.35,10.45-.35s8.2.12,10.43.35a10.74,10.74,0,0,1,5,1.45,4.86,4.86,0,0,1,2,3.24A41.37,41.37,0,0,1,138.1,178.7Z"></path><path class="cls-1" d="M211.78,190.31H198.23l-14.18-17.16c0-.06-.13-.21-.27-.47a3.1,3.1,0,0,0-.36-.59.43.43,0,0,0-.35-.2.11.11,0,0,0-.12.12,4.38,4.38,0,0,0,.4,1.13,4.22,4.22,0,0,1,.39,1.18v16h-8.27V167.15H189l14.15,17.12c.05.07.14.24.28.49a3,3,0,0,0,.35.58.44.44,0,0,0,.34.2c.08,0,.12,0,.12-.16a4.38,4.38,0,0,0-.38-1.16,4.74,4.74,0,0,1-.37-1.11v-16h8.27Z"></path><path class="cls-1" d="M281.47,181.36a23.7,23.7,0,0,1-.39,5.06,4.07,4.07,0,0,1-1.9,2.55,11.56,11.56,0,0,1-4.72,1.28,93.22,93.22,0,0,1-9.51.35,89.59,89.59,0,0,1-9.44-.36,9.56,9.56,0,0,1-4.61-1.5,5.23,5.23,0,0,1-2-3.33,37.87,37.87,0,0,1-.43-6.75,37.64,37.64,0,0,1,.43-6.72,5.22,5.22,0,0,1,1.95-3.31,9.67,9.67,0,0,1,4.62-1.51,89.59,89.59,0,0,1,9.44-.36q6.18,0,9.42.34a11.8,11.8,0,0,1,4.76,1.3,4.14,4.14,0,0,1,1.93,2.57,22.75,22.75,0,0,1,.41,5h-8.32a4.37,4.37,0,0,0-.24-1.67,1.88,1.88,0,0,0-1-.94,8.29,8.29,0,0,0-2.4-.5c-1.06-.09-2.57-.15-4.52-.15-2.28,0-3.92.06-4.92.16a4.29,4.29,0,0,0-2.21.7,2.27,2.27,0,0,0-.87,1.57,38.58,38.58,0,0,0,0,7,2.33,2.33,0,0,0,.87,1.57,4.58,4.58,0,0,0,2.22.68c1,.1,2.64.15,4.91.15,1.94,0,3.44,0,4.5-.13a8.53,8.53,0,0,0,2.41-.45,1.84,1.84,0,0,0,1.07-.94,4.5,4.5,0,0,0,.26-1.72Z"></path><path class="cls-1" d="M341.53,175.45a2.39,2.39,0,0,0-.59-1.84,2.9,2.9,0,0,0-1.94-.53H325.73v4.71H339a2.91,2.91,0,0,0,1.93-.53,2.29,2.29,0,0,0,.6-1.81m8.28,14.83h-8.28v-4.16a2.34,2.34,0,0,0-.65-1.62,2.65,2.65,0,0,0-2.06-.71H325.73v6.49h-8.28v-23.2h24.08a18.08,18.08,0,0,1,3.74.33,6.24,6.24,0,0,1,2.5,1.08,4.57,4.57,0,0,1,1.47,2.06,10.56,10.56,0,0,1,.57,3.28,9,9,0,0,1-.85,4.39,5,5,0,0,1-2.87,2.16,12.42,12.42,0,0,1,2.31,1.09,2.74,2.74,0,0,1,1.08,1.3,6.41,6.41,0,0,1,.33,2.32Z"></path><polygon class="cls-1" points="416.9 190.28 387.93 190.28 387.93 167.08 416.9 167.08 416.9 172.69 396.21 172.69 396.21 175.9 415.96 175.9 415.96 181.48 396.21 181.48 396.21 184.66 416.9 184.66 416.9 190.28"></polygon><polygon class="cls-1" points="486.4 173.08 474.55 173.08 474.55 190.28 466.27 190.28 466.27 173.08 454.37 173.08 454.37 167.08 486.4 167.08 486.4 173.08"></polygon><path class="cls-1" d="M550.9,178.7a24.59,24.59,0,0,0-.19-3.65,2.16,2.16,0,0,0-1-1.56,5.41,5.41,0,0,0-2.48-.62c-1.11-.08-3-.11-5.81-.11s-4.72,0-5.83.11a5.55,5.55,0,0,0-2.48.61,2.21,2.21,0,0,0-1,1.57,23.25,23.25,0,0,0-.19,3.65,24.33,24.33,0,0,0,.18,3.61,2.17,2.17,0,0,0,1,1.55,5.53,5.53,0,0,0,2.49.62c1.1.08,3,.12,5.8.12s4.72,0,5.83-.12a5.49,5.49,0,0,0,2.49-.62,2.15,2.15,0,0,0,1-1.55,24,24,0,0,0,.19-3.61m8.27,0a41.79,41.79,0,0,1-.42,6.91,4.85,4.85,0,0,1-2,3.22,10.7,10.7,0,0,1-4.92,1.43q-3.32.35-10.46.34t-10.47-.35a10.73,10.73,0,0,1-4.92-1.44,4.76,4.76,0,0,1-2-3.2,42.65,42.65,0,0,1-.39-6.91,42.94,42.94,0,0,1,.39-6.93,4.8,4.8,0,0,1,2-3.22,10.65,10.65,0,0,1,4.94-1.45c2.23-.23,5.72-.35,10.45-.35s8.19.12,10.43.35a10.74,10.74,0,0,1,5,1.45,4.89,4.89,0,0,1,2,3.24A41.64,41.64,0,0,1,559.17,178.7Z"></path><path class="cls-1" d="M763.31,147.49a49.57,49.57,0,0,1-16.7-2.92,44.26,44.26,0,0,1-14.89-9L741.4,124a47.94,47.94,0,0,0,10.48,6.59A27.88,27.88,0,0,0,763.63,133q5.11,0,7.93-1.86a5.86,5.86,0,0,0,2.82-5.16v-.21a6.46,6.46,0,0,0-.59-2.82,5.91,5.91,0,0,0-2.24-2.29,23.92,23.92,0,0,0-4.59-2.13c-2-.7-4.49-1.45-7.62-2.23a93.2,93.2,0,0,1-10.24-3.08,28.88,28.88,0,0,1-7.79-4.21,17,17,0,0,1-5-6.22,21.52,21.52,0,0,1-1.76-9.26v-.21a21.57,21.57,0,0,1,1.9-9.2,21,21,0,0,1,5.34-7.08,24,24,0,0,1,8.2-4.57,32.84,32.84,0,0,1,10.52-1.6,44.53,44.53,0,0,1,15.05,2.45,43.55,43.55,0,0,1,12.61,7L779.7,92.7a54.06,54.06,0,0,0-9.79-5.37,25,25,0,0,0-9.58-2c-3.18,0-5.58.62-7.18,1.86a5.67,5.67,0,0,0-2.39,4.63v.21a6.7,6.7,0,0,0,.69,3.14A6.27,6.27,0,0,0,754,97.6a24.2,24.2,0,0,0,5,2q3.15,1,8,2.23A77.23,77.23,0,0,1,777,105.2a28.4,28.4,0,0,1,7.47,4.47,17.12,17.12,0,0,1,4.58,6.12,20.75,20.75,0,0,1,1.55,8.4v.22a23.07,23.07,0,0,1-2,9.84,20.27,20.27,0,0,1-5.6,7.23,25.35,25.35,0,0,1-8.58,4.47,37.17,37.17,0,0,1-11.05,1.54"></path><path class="cls-2" d="M764.59,111.48c-1.81-.24-57.16-15.33-57.16-15.33L749.51,56l-57,13.87,15-54.61L665.32,56,650.23,0,634.84,55.11,592.9,16.18l23.43,61.16h0a47.83,47.83,0,1,1,0,67.47V146L592.9,208.4l42.54-40.14,14.79,53.42,16.9-53.42,41,39.23L693.38,152l56.73,14.49-41-40.14s57.33-14.6,55.52-14.84"></path><path class="cls-1" d="M38.19,147.7a38.63,38.63,0,0,1-15.21-3,37.56,37.56,0,0,1-12.13-8.14,37.15,37.15,0,0,1-8-12.19,39.26,39.26,0,0,1-2.87-15v-.22A38.68,38.68,0,0,1,10.85,82a37,37,0,0,1,12.24-8.3,39.83,39.83,0,0,1,15.74-3,49.16,49.16,0,0,1,9.53.85,40,40,0,0,1,7.81,2.34,34.05,34.05,0,0,1,6.49,3.62,44.5,44.5,0,0,1,5.54,4.68l-10.43,12A39.69,39.69,0,0,0,48.89,88a22.67,22.67,0,0,0-10.17-2.23,20.87,20.87,0,0,0-8.67,1.8,20.48,20.48,0,0,0-6.85,5A23.26,23.26,0,0,0,18.72,100a25.19,25.19,0,0,0-1.59,9v.21a25.68,25.68,0,0,0,1.59,9,23.88,23.88,0,0,0,4.42,7.44,20.45,20.45,0,0,0,15.58,6.92,22.88,22.88,0,0,0,10.81-2.34,41.89,41.89,0,0,0,8.77-6.39L68.73,134.4a53.86,53.86,0,0,1-6,5.54,35.5,35.5,0,0,1-6.76,4.2,34.73,34.73,0,0,1-8,2.66,48.64,48.64,0,0,1-9.79.9"></path><path class="cls-1" d="M107.53,132.6a22.29,22.29,0,0,0,9-1.81,20.68,20.68,0,0,0,7.08-5,23.81,23.81,0,0,0,4.58-7.39,24.58,24.58,0,0,0,1.64-9v-.22a25,25,0,0,0-1.64-9,22.35,22.35,0,0,0-11.87-12.5,21.83,21.83,0,0,0-9-1.86,22.36,22.36,0,0,0-9.1,1.8,20.85,20.85,0,0,0-7,5A23.31,23.31,0,0,0,86.63,100,24.38,24.38,0,0,0,85,109v.21a24.85,24.85,0,0,0,1.65,9,22.5,22.5,0,0,0,11.81,12.5,21.73,21.73,0,0,0,9.09,1.86m-.21,15.1a40.63,40.63,0,0,1-15.85-3A39.3,39.3,0,0,1,79,136.48a36.64,36.64,0,0,1-8.2-12.13,38.2,38.2,0,0,1-2.92-14.94v-.22a37.5,37.5,0,0,1,3-14.94,38,38,0,0,1,20.8-20.54,43.1,43.1,0,0,1,31.75,0,39.16,39.16,0,0,1,12.5,8.2A36.42,36.42,0,0,1,144.07,94,38.07,38.07,0,0,1,147,109v.21a37.54,37.54,0,0,1-3,15,38.07,38.07,0,0,1-20.8,20.53A41,41,0,0,1,107.32,147.7Z"></path><polygon class="cls-1" points="152.71 71.96 167.82 71.96 202.71 117.81 202.71 71.96 218.88 71.96 218.88 146.43 204.94 146.43 168.88 99.09 168.88 146.43 152.71 146.43 152.71 71.96"></polygon><path class="cls-1" d="M262.14,147.7a38.63,38.63,0,0,1-15.21-3,37.45,37.45,0,0,1-12.13-8.14,36.84,36.84,0,0,1-8-12.19,39.08,39.08,0,0,1-2.88-15v-.22a38.68,38.68,0,0,1,2.88-14.94,38.22,38.22,0,0,1,8-12.24A36.94,36.94,0,0,1,247,73.71a39.85,39.85,0,0,1,15.75-3,49.05,49.05,0,0,1,9.52.85,40.12,40.12,0,0,1,7.82,2.34,34.36,34.36,0,0,1,6.49,3.62,44.41,44.41,0,0,1,5.53,4.68l-10.43,12A39.47,39.47,0,0,0,272.83,88a22.6,22.6,0,0,0-10.16-2.23,20.84,20.84,0,0,0-8.67,1.8,20.51,20.51,0,0,0-6.86,5,23.06,23.06,0,0,0-4.47,7.39,25.2,25.2,0,0,0-1.6,9v.21a25.69,25.69,0,0,0,1.6,9,23.5,23.5,0,0,0,4.42,7.44,20.4,20.4,0,0,0,15.58,6.92,22.84,22.84,0,0,0,10.8-2.34,41.94,41.94,0,0,0,8.78-6.39l10.42,10.53a53,53,0,0,1-6,5.54,35.42,35.42,0,0,1-6.75,4.2,35.05,35.05,0,0,1-8,2.66,48.64,48.64,0,0,1-9.79.9"></path><path class="cls-1" d="M330.35,108.74q6.06,0,9.31-2.87a9.74,9.74,0,0,0,3.24-7.66V98q0-5.31-3.4-8T330,87.36H313.75v21.38Zm-33-36.17h34q14.16,0,21.71,7.55,6.38,6.39,6.38,17v.22q0,9-4.41,14.73a25.66,25.66,0,0,1-11.55,8.35L361.73,147H342.59l-16-23.83H313.75V147H297.37Z"></path><polygon class="cls-1" points="366.09 71.96 422.16 71.96 422.16 86.53 382.26 86.53 382.26 101.64 417.37 101.64 417.37 116.21 382.26 116.21 382.26 131.85 422.69 131.85 422.69 146.43 366.09 146.43 366.09 71.96"></polygon><polygon class="cls-1" points="428.39 71.96 444.77 71.96 444.77 131.64 481.9 131.64 481.9 146.43 428.39 146.43 428.39 71.96"></polygon><path class="cls-1" d="M516.74,115.26l-9.9-24.15L497,115.26ZM499.5,71.42h15.11l31.92,75H529.4l-6.81-16.7H491.1l-6.81,16.7H467.58Z"></path><path class="cls-1" d="M578.22,147.7a42.39,42.39,0,0,1-15.91-2.87,36.59,36.59,0,0,1-12.34-8,36,36,0,0,1-8-12.13,39.9,39.9,0,0,1-2.87-15.31v-.22a38.07,38.07,0,0,1,23.4-35.48,39.58,39.58,0,0,1,15.64-3,55.05,55.05,0,0,1,9.1.69,43.63,43.63,0,0,1,7.61,2,35.2,35.2,0,0,1,6.59,3.19,49.84,49.84,0,0,1,6,4.36L597.05,93.34a42.14,42.14,0,0,0-4.26-3.19,28.29,28.29,0,0,0-4.41-2.34,25.73,25.73,0,0,0-5-1.49,30.2,30.2,0,0,0-5.85-.53,19,19,0,0,0-8.35,1.87,22.43,22.43,0,0,0-6.81,5,22.8,22.8,0,0,0-4.57,7.35,24.52,24.52,0,0,0-1.65,9v.22a26.2,26.2,0,0,0,1.65,9.43,22.27,22.27,0,0,0,4.68,7.52,21.25,21.25,0,0,0,7.12,5,22.86,22.86,0,0,0,9.1,1.76q9.15,0,15.43-4.5V117.7H577.69V103.55H610v32.34a54.56,54.56,0,0,1-13.67,8.36,45.08,45.08,0,0,1-18.14,3.45"></path></g></g></svg>
